<svg width="32" height="48" viewBox="0 0 32 48" fill="none" xmlns="http://www.w3.org/2000/svg">
<path d="M8.00001 48C12.416 48 16 44.416 16 39.9999V31.9998H8.00001C3.58401 31.9998 0 35.5838 0 39.9999C0 44.416 3.58401 48 8.00001 48Z" fill="#2ECD87"/>
<path d="M0 23.9994C0 19.5835 3.58401 15.9995 8.00001 15.9995H16V31.9993H8.00001C3.58401 31.9993 0 28.4153 0 23.9994Z" fill="#9D5DFA"/>
<path d="M0 7.99995C0 3.58398 3.58401 0 8.00001 0H16V15.9999H8.00001C3.58401 15.9999 0 12.4159 0 7.99995Z" fill="#EF4D27"/>
<path d="M16 0H24.0001C28.4161 0 32.0001 3.58398 32.0001 7.99995C32.0001 12.4159 28.4161 15.9999 24.0001 15.9999H16V0Z" fill="#FD7063"/>
<path d="M32.0001 23.9994C32.0001 28.4153 28.4161 31.9993 24.0001 31.9993C19.584 31.9993 16 28.4153 16 23.9994C16 19.5835 19.584 15.9995 24.0001 15.9995C28.4161 15.9995 32.0001 19.5835 32.0001 23.9994Z" fill="#29BCFC"/>
</svg>
